<svg xmlns="http://www.w3.org/2000/svg" viewBox="0 0 368.64 368.64"><defs><style>.cls-1,.cls-3{fill:#e5e5e5;}.cls-2{fill:#c19f58;}.cls-3{fill-rule:evenodd;}</style></defs><title>loupe_blanche_manche_hover</title><g id="Calque_2" data-name="Calque 2"><g id="Layer_1" data-name="Layer 1"><path class="cls-1" d="M332.66,36a122.49,122.49,0,0,1,36,86.88h0A122.86,122.86,0,1,1,245.78,0V0a122.53,122.53,0,0,1,86.88,36ZM247.91,23.06h-2.13a99.82,99.82,0,1,0,99.8,99.8v-2.13a99.84,99.84,0,0,0-97.67-97.67Z"/><path class="cls-2" d="M102,219.35l47.35,47.36h0l0,0,4,4-4.07,4.07L138.21,286h0L67,357.18a39.26,39.26,0,0,1-55.52-55.52l71.23-71.23,11.1-11.1h0l0,0,4-4,4,4,0,0Z"/><path class="cls-3" d="M104.54,228.72l35.38,35.38,40.82-40.82q-9.42-7.93-18.44-16.94T145.36,187.9Z"/><path class="cls-3" d="M191.3,68.38A77.09,77.09,0,0,1,245.24,45.8a5.74,5.74,0,1,0,0-11.48,88.71,88.71,0,0,0-78.15,48,5.74,5.74,0,0,0,10.21,5.27,75.95,75.95,0,0,1,14-19.23Z"/></g></g></svg>