<svg xmlns="http://www.w3.org/2000/svg" viewBox="0 0 125.73 101.66"><title>ouvrantes_serre</title><g id="Calque_2" data-name="Calque 2"><g id="Calque_1-2" data-name="Calque 1"><path d="M50.68,0V8.5Q32.82,19,25.49,28.13a32.17,32.17,0,0,0-7.33,20.8c0,4.1.74,7.17,2.2,9.22a6.48,6.48,0,0,0,5.42,3.08,14.71,14.71,0,0,0,3.08-.44,34.63,34.63,0,0,0,4-1.17,34.77,34.77,0,0,1,4-1.17A13.91,13.91,0,0,1,39.84,58q7.62,0,13.77,6a19.56,19.56,0,0,1,6.16,14.51,21.51,21.51,0,0,1-2.35,10.25,23.18,23.18,0,0,1-6,7.32,23.47,23.47,0,0,1-8.21,4.25,31.88,31.88,0,0,1-8.93,1.32,28.45,28.45,0,0,1-12.89-3.08,37.61,37.61,0,0,1-11-8.35,39.58,39.58,0,0,1-7.62-12.3A40.91,40.91,0,0,1,0,62.7,62.5,62.5,0,0,1,2.78,44.24,56.38,56.38,0,0,1,11.72,27,71.05,71.05,0,0,1,27.54,11.87,98.68,98.68,0,0,1,50.68,0Z"/><path d="M116.65,0V8.5Q98.77,19,91.46,28.13a32.17,32.17,0,0,0-7.33,20.8q0,6.15,2.2,9.22a6.46,6.46,0,0,0,5.42,3.08,14.54,14.54,0,0,0,3.07-.44,34.77,34.77,0,0,0,4-1.17,34,34,0,0,1,4-1.17,14,14,0,0,1,3.08-.44q7.62,0,13.77,6a19.55,19.55,0,0,1,6.15,14.51,21.5,21.5,0,0,1-2.34,10.25,23.24,23.24,0,0,1-14.21,11.57,32,32,0,0,1-8.94,1.32,28.51,28.51,0,0,1-12.89-3.08,37.56,37.56,0,0,1-11-8.35,39.22,39.22,0,0,1-7.62-12.3A40.91,40.91,0,0,1,66,62.7a62.5,62.5,0,0,1,2.78-18.46A55.94,55.94,0,0,1,77.69,27,71.05,71.05,0,0,1,93.51,11.87,98.48,98.48,0,0,1,116.65,0Z"/></g></g></svg>