<svg xmlns="http://www.w3.org/2000/svg" viewBox="0 0 125.73 101.66"><title>ouvrantes_serre</title><g id="Calque_2" data-name="Calque 2"><g id="Calque_1-2" data-name="Calque 1"><path d="M75.05,101.66v-8.5q17.88-10.55,25.19-19.62a32.22,32.22,0,0,0,7.33-20.81q0-6.15-2.2-9.22A6.49,6.49,0,0,0,100,40.43a14.54,14.54,0,0,0-3.07.44,34.77,34.77,0,0,0-4,1.17,34,34,0,0,1-4,1.17,14,14,0,0,1-3.08.44q-7.62,0-13.77-6A19.55,19.55,0,0,1,66,23.14a21.5,21.5,0,0,1,2.34-10.25A23.24,23.24,0,0,1,82.52,1.32,32,32,0,0,1,91.46,0a28.51,28.51,0,0,1,12.89,3.08,37.56,37.56,0,0,1,11,8.35A39.4,39.4,0,0,1,123,23.73,40.91,40.91,0,0,1,125.73,39,62.5,62.5,0,0,1,123,57.42,55.94,55.94,0,0,1,114,74.71,71.05,71.05,0,0,1,98.19,89.79,98.48,98.48,0,0,1,75.05,101.66Z"/><path d="M9.08,101.66v-8.5Q27,82.62,34.28,73.54A32.26,32.26,0,0,0,41.6,52.73q0-6.15-2.2-9.22A6.47,6.47,0,0,0,34,40.43a14.63,14.63,0,0,0-3.07.44A34.77,34.77,0,0,0,27,42,34,34,0,0,1,23,43.21a13.91,13.91,0,0,1-3.08.44q-7.61,0-13.77-6A19.55,19.55,0,0,1,0,23.14,21.5,21.5,0,0,1,2.34,12.89,23.24,23.24,0,0,1,16.55,1.32,32,32,0,0,1,25.49,0,28.48,28.48,0,0,1,38.38,3.08a37.74,37.74,0,0,1,11,8.35A39.37,39.37,0,0,1,57,23.73,40.91,40.91,0,0,1,59.77,39,62.51,62.51,0,0,1,57,57.42a56.13,56.13,0,0,1-8.93,17.29A71.27,71.27,0,0,1,32.23,89.79,98.76,98.76,0,0,1,9.08,101.66Z"/></g></g></svg>